<?xml version="1.0" standalone="no"?>
<!DOCTYPE svg PUBLIC "-//W3C//DTD SVG 20010904//EN"
 "http://www.w3.org/TR/2001/REC-SVG-20010904/DTD/svg10.dtd">
<svg version="1.0" xmlns="http://www.w3.org/2000/svg"
 width="408.000000pt" height="612.000000pt" viewBox="0 0 408.000000 612.000000"
 preserveAspectRatio="xMidYMid meet">

<g transform="translate(0.000000,612.000000) scale(0.100000,-0.100000)"
fill="#000000" stroke="none">
<path d="M1875 4674 c-93 -10 -226 -36 -314 -61 -91 -25 -95 -26 -146 -9 -126
39 -231 0 -287 -108 -31 -61 -34 -131 -8 -234 20 -82 21 -95 8 -149 -9 -40
-12 -119 -10 -258 3 -238 -7 -291 -88 -461 -160 -335 -220 -546 -220 -773 0
-255 100 -501 257 -631 102 -85 205 -124 355 -135 99 -7 233 19 297 57 53 31
120 98 142 140 55 107 -16 232 -164 291 l-60 24 2 149 c2 159 10 214 40 273
24 45 100 118 145 136 l33 14 5 200 c3 141 8 204 17 215 9 10 34 16 79 18 l65
3 12 58 11 57 -70 0 c-128 0 -227 39 -294 115 -54 61 -72 118 -72 225 0 104
18 179 69 285 49 102 107 167 185 208 52 27 72 32 136 32 65 0 82 -4 129 -30
95 -52 173 -166 222 -325 18 -58 24 -98 24 -175 0 -89 -3 -106 -28 -152 -46
-88 -124 -149 -223 -173 l-41 -10 -9 -62 c-5 -35 -8 -159 -6 -275 l3 -213 44
-25 c56 -33 111 -95 138 -154 19 -40 22 -69 25 -228 l4 -181 -69 -50 c-83 -61
-107 -99 -107 -167 2 -117 96 -209 269 -263 62 -20 229 -21 305 -3 258 61 426
273 485 608 20 117 19 198 -5 338 -26 150 -68 276 -165 490 -136 300 -130 276
-130 525 0 118 -4 249 -9 290 -7 64 -5 89 13 160 11 46 21 98 21 115 0 75 -45
150 -118 196 -38 24 -57 29 -106 29 -37 0 -77 -8 -101 -18 -39 -18 -41 -18
-135 9 -52 16 -135 35 -185 44 -92 16 -299 26 -370 19z m-222 -425 c14 -23 1
-67 -24 -74 -42 -14 -67 46 -33 80 19 19 43 16 57 -6z m743 -4 c28 -42 -4 -87
-46 -65 -25 13 -34 44 -20 70 15 27 46 25 66 -5z"/>
<path d="M1918 4274 c-47 -14 -78 -45 -93 -92 -9 -31 9 -51 57 -58 61 -10 80
-32 86 -95 5 -68 -12 -135 -39 -150 -22 -11 -112 -8 -140 5 -11 5 -19 1 -23
-10 -16 -42 61 -64 157 -44 50 10 57 14 57 36 0 32 28 32 36 0 7 -30 21 -36
99 -43 50 -4 64 -2 84 14 16 13 22 26 18 36 -5 14 -11 14 -37 5 -45 -15 -130
-5 -147 18 -10 13 -13 45 -11 109 3 100 6 104 93 122 36 7 40 11 43 41 6 59
-84 123 -168 121 -14 0 -46 -7 -72 -15z"/>
</g>
</svg>
